<?xml version="1.0" encoding="utf-8"?>
<!-- Generator: Adobe Illustrator 25.3.1, SVG Export Plug-In . SVG Version: 6.00 Build 0)  -->
<svg version="1.1" id="Layer_1" xmlns="http://www.w3.org/2000/svg" xmlns:xlink="http://www.w3.org/1999/xlink" x="0px" y="0px"
	 viewBox="0 0 841.9 595.3" style="fill:#d7d7d7" xml:space="preserve">
<path d="M612.3,297.6c0,75.2-61,136.2-136.2,136.2c-21.7,0-42.2-5.1-60.4-14.1c-18.2,9-38.8,14.1-60.4,14.1
	c-75.2,0-136.2-61-136.2-136.2c0-75.2,61-136.2,136.2-136.2c21.7,0,42.1,5.1,60.4,14.1c18.2-9,38.7-14.1,60.4-14.1
	C551.3,161.5,612.3,222.4,612.3,297.6z M585.4,297.6c0-60.4-48.9-109.3-109.3-109.3c-11.5,0-22.6,1.8-33,5.1
	c20.9,17.5,36.1,40.8,43.5,67.8l-28.2,0.1c-8-22.6-23.1-41.7-42.8-54.7c-19.6,13-34.7,32.2-42.7,54.7l-28.2-0.1
	c7.4-26.9,22.9-50.5,43.7-67.9c-10.4-3.3-21.7-4.9-33.2-4.9C295,188.3,246,237.3,246,297.6S295,406.9,355.3,406.9
	c11.4,0,22.4-1.7,32.7-5c-27.1-22.8-44.7-56-47.7-93.4h64.8v26.7l-31.5,0.4c8.1,21.8,23,40.4,42.1,53c19.2-12.7,33.9-31.2,42-53
	l-31.5-0.4v-26.7H491c-3,37.4-21,70.4-48.1,93.2c10.5,3.3,21.6,5.1,33.2,5.1C536.5,406.9,585.4,358,585.4,297.6z"/>
</svg>
